<svg width="45" height="45" viewBox="0 0 45 45" fill="none" xmlns="http://www.w3.org/2000/svg">
<rect x="0.5" y="0.5" width="44" height="44" rx="10.5" stroke="white"/>
<path d="M10.4999 28.9998L8.99989 35.9998L15.9999 34.4998C20.7427 37.2998 24.9999 37.1249 27.9999 35.9998C31.9999 34.4998 38.3999 29.3998 37.9999 20.9998C37.5999 12.5998 30.9999 8 25.9999 6.99985C21.9569 6.19114 14.9999 6.99985 10.9999 12.9998C6.99989 18.9998 8.99989 26.1665 10.4999 28.9998Z" stroke="white" stroke-width="2" stroke-linecap="round" stroke-linejoin="round"/>
<path d="M19 14.2209L20.5 17.7209C20.651 18.458 19.5 19.2209 19 19.7209C18.6 20.1209 18.8333 20.8875 19 21.2209C20.5 24.7209 22.5 25.2209 23.5 25.7209C24.3 26.1209 24.651 25.958 25 25.7209C26.4772 24.7171 26.8333 24.0542 27 24.2209L30.5 26.2209C30.9 26.6209 30.7073 27.8547 30.5 28.2209C29.651 29.7209 28.1667 29.7209 27.5 29.7209C17.9 29.3209 15.1667 20.8875 15 16.7209C15 14.958 15.7 14.6209 16.5 14.2209C17.3 13.8209 18.5 14.0542 19 14.2209Z" fill="white" stroke="white" stroke-linecap="round" stroke-linejoin="round"/>
</svg>
